<?xml version="1.1" encoding="UTF-8"?>
<svg version="2.0" viewBox="0 0 16 16" xmlns="http://www.w3.org/2000/svg">
	<link xmlns="http://www.w3.org/1999/xhtml" rel="stylesheet" href="../index.css" type="text/css"/>
	<a href="https://github.com/perssphere07" alt="GitHub Profile">
		<rect class="ghiconbg" width="16" height="16" fill="#1A1C1E"/>
		<path class="ghicon" d="M7.80264 0C12.1136 0 15.6053 3.67055 15.6053 8.20235C15.6049 9.92095 15.0918 11.5961 14.1382 12.9921C13.1847 14.3881 11.8387 15.4346 10.2897 15.9843C9.8996 16.0664 9.7533 15.81 9.7533 15.5947C9.7533 15.3179 9.76306 14.4361 9.76306 13.3391C9.76306 12.5701 9.51922 12.078 9.23638 11.8216C10.9725 11.6166 12.7963 10.9194 12.7963 7.77173C12.7963 6.86947 12.494 6.14151 11.9966 5.56735C12.0746 5.36229 12.3477 4.52155 11.9185 3.39372C11.9185 3.39372 11.2651 3.16816 9.77281 4.23446C9.1486 4.04991 8.48537 3.95763 7.82215 3.95763C7.15892 3.95763 6.4957 4.04991 5.87149 4.23446C4.37923 3.17841 3.72576 3.39372 3.72576 3.39372C3.29662 4.52155 3.56971 5.36229 3.64773 5.56735C3.15032 6.14151 2.84796 6.87972 2.84796 7.77173C2.84796 10.9091 4.66208 11.6166 6.39817 11.8216C6.17384 12.0267 5.96902 12.3855 5.90075 12.9187C5.4521 13.134 4.33047 13.4826 3.62823 12.242C3.48193 11.9959 3.04303 11.391 2.42857 11.4013C1.7751 11.4115 2.16523 11.7909 2.43833 11.9447C2.76994 12.1395 3.15032 12.8674 3.2381 13.1033C3.39415 13.5646 3.90132 14.4464 5.86173 14.067C5.86173 14.754 5.87149 15.3999 5.87149 15.5947C5.87149 15.81 5.72519 16.0561 5.33506 15.9843C2.23351 14.8975 0 11.8319 0 8.20235C0 3.67055 3.49168 0 7.80264 0Z"/>
	</a>
</svg>
