<?xml version="1.1" encoding="UTF-8"?>
<svg version="2.0" viewBox="0 0 640 988" xmlns="http://www.w3.org/2000/svg">
	<g filter="url(#filter0_b_201_2)">
	<path d="M264.328 374.884L257.128 378.9L255.246 382.164C253.431 385.507 255.748 385.941 255.748 385.941L263.222 395.548L270.194 401.436L286.693 409.07L304.357 419.602C304.357 419.602 307.118 425.342 308.933 425.068C309.339 425.009 309.621 423.885 309.946 422.589C310.498 420.39 311.174 417.699 312.79 418.883C312.961 419.012 313.223 419.35 313.568 419.798C314.973 421.615 317.762 425.225 321.507 423.824C325.719 422.256 325.957 425.863 326.19 429.405C326.323 431.429 326.455 433.432 327.327 434.436L328.692 435.984C334.087 442.098 336.317 444.625 340.278 451.004L350.901 472.525L356.356 478.63C356.356 478.63 358.683 484.369 363.202 494.49C367.052 503.121 371.718 509.468 374.168 512.802C374.543 513.311 374.866 513.751 375.126 514.117C376.11 515.56 378.547 516.904 381.633 518.605C384.451 520.159 387.811 522.012 391.101 524.512C392.836 525.813 402.751 536.87 407.088 544.138C413.917 555.703 417.603 561.27 419.166 563.631L419.593 564.278C427.871 577.269 428.888 582.753 430.381 590.809C430.919 593.713 431.52 596.952 432.545 600.998C433.834 606.064 436.242 615.318 436.242 615.318C436.242 615.318 436.903 626.649 438.49 638.573C439.053 642.439 439.427 648.021 439.834 654.086C440.276 660.676 440.757 667.836 441.559 673.98C442.072 677.673 442.13 677.326 442.13 677.318C442.13 677.314 442.113 677.407 442.141 678.271C442.415 685.825 446.705 692.511 446.705 692.511C446.705 692.511 450.414 685.46 452.605 685.973C452.605 685.973 458.504 709.901 456.735 717.295C452.296 735.906 450.128 737.8 450.128 737.8L444.971 750.078C444.971 750.078 445.484 757.712 442.415 761.569C439.311 765.631 437.908 780.613 437.908 780.613C433.641 785.643 431.511 788.624 430.101 790.596C428.412 792.96 427.757 793.876 425.698 795.139C420.322 798.37 419.396 797.909 417.975 797.201C416.992 796.712 415.772 796.104 412.679 796.52L412.399 796.558C408.37 797.105 407.491 797.225 406.895 797.699C406.728 797.832 406.583 797.992 406.398 798.197C406.062 798.57 405.591 799.091 404.611 799.863C402.809 801.288 402.208 802.017 401.299 803.119C400.447 804.152 399.326 805.512 396.692 808.079C393.672 811.023 391.345 810.759 389.288 810.526C387.63 810.338 386.147 810.17 384.62 811.719C384.62 811.719 379.667 809.106 376.119 811.787C372.707 814.549 371.246 815.496 371.246 815.496C371.246 815.496 367.47 815.998 361.57 818.326C358.597 819.515 357.295 822.785 355.967 826.12C354.696 829.314 353.4 832.566 350.593 834.107C348.361 835.293 347.862 835.559 347.895 835.686C347.897 835.696 347.904 835.706 347.913 835.715C347.937 835.737 347.978 835.757 348.027 835.779C348.337 835.924 348.956 836.212 347.318 838.317C347.318 838.317 333.591 839.412 331.344 839.766C330.124 839.916 328.767 838.594 327.428 837.289C326.211 836.103 325.008 834.932 323.938 834.894C321.997 834.781 319.915 836.483 317.663 838.324C315.361 840.206 312.882 842.232 310.199 842.607C310.199 842.607 306.194 842.448 305.122 842.094C302.201 841.147 298.515 847.993 298.515 847.993C298.515 847.993 300.671 853.002 300.238 855.342C299.804 857.749 293.631 857.818 293.631 857.818C293.631 857.818 290.139 860.579 290.06 865.885L279.813 869.502L275.818 874.592C274.487 876.337 274.056 876.901 273.946 876.844C273.893 876.817 273.913 876.648 273.943 876.399C274.036 875.627 274.221 874.084 272.624 873.576C269.349 872.48 267.238 873.496 262.879 875.607C260.694 876.668 260.694 876.668 260.831 876.939C260.968 877.21 261.242 877.752 259.604 879.897C259.604 879.897 247.76 883.754 244.702 884.188C243.55 884.351 242.093 883.798 240.499 883.194C237.846 882.188 234.815 881.039 232.185 882.807C230.576 883.914 225.35 886.516 221.436 887.326C218.883 887.875 217.041 887.452 215.506 887.1C215.03 886.991 214.584 886.888 214.156 886.824C213.267 886.677 214.068 885.908 214.902 885.107C215.687 884.354 216.501 883.573 215.97 883.252C215.654 883.059 214.106 882.801 212.276 882.496L211.611 882.385C211.062 882.311 210.697 883.516 210.333 884.718C209.97 885.915 209.608 887.109 209.067 887.029C207.126 886.691 204.886 883.163 203.692 881.283C203.355 880.753 203.102 880.355 202.962 880.194C202.611 879.81 203.085 879.629 203.583 879.44C204.12 879.235 204.683 879.02 204.263 878.528C204.011 878.174 203.657 877.756 203.244 877.268C203.058 877.048 202.86 876.814 202.654 876.565C201.433 875.185 200.041 873.507 199.379 872.64C198.972 872.074 200.517 871.57 202.005 871.083C203.398 870.628 204.741 870.188 204.388 869.73C203.9 868.987 201.497 869.143 199.708 869.258C198.863 869.313 198.154 869.359 197.85 869.297C189.509 866.604 196.549 863.341 196.549 863.341C195.857 861.833 195.6 861.694 195.29 861.526C195.14 861.445 194.977 861.357 194.746 861.104C193.54 859.898 193.657 859.804 193.939 859.577C194.201 859.367 194.606 859.042 194.221 857.601C194.051 856.896 193.421 855.9 192.75 854.837C191.128 852.269 189.264 849.317 193.057 849.18C192.692 847.708 197.12 848.586 197.12 848.586L196.88 844.068L196.96 840.006L193.536 837.461L195.864 824.442C195.864 824.442 203.932 808.067 204.08 793.907C204.24 779.655 204.879 769.476 204.879 769.476C204.879 769.476 202.836 769.762 205.826 761.261L208.804 752.76C208.804 752.76 211.714 744.247 210.424 734.297C209.044 724.336 194.997 712.058 194.997 712.058C194.997 712.058 193.034 712.343 193.685 702.096C194.358 691.918 189.246 684.512 189.246 684.512L183.587 673.09L172.609 668.538L171.001 656.522L177.961 647.508C177.961 647.508 184.305 640.171 187.261 640.171C189.668 640.171 194.842 644.151 199.432 647.684C205.349 652.237 210.298 656.044 207.104 649.619L201.433 638.276L208.553 615.021C208.553 615.021 197.371 608.403 196.549 602.436C196.229 600.047 195.354 598.384 194.479 596.722C193.168 594.231 191.857 591.742 192.418 586.814C192.966 582.009 191.933 580.842 190.797 579.56C189.969 578.625 189.087 577.629 188.721 575.118L188.156 570.912C187.923 569.173 187.923 569.173 187.923 569.173C187.923 569.173 187.557 550.985 180.654 545.839C176.964 543.081 174.913 543.585 172.17 544.259C169.78 544.846 166.865 545.562 161.883 544.367C151.26 541.753 146.856 554.488 146.856 554.488L135.662 547.949L126.214 539.083L113 532.762C108.35 536.442 107.129 535.095 106.519 534.422C105.908 533.749 105.908 533.749 103.7 540.122L99.2615 552.902L91.9815 559.942L80.7993 553.335L71.6364 546.5C65.4575 546.318 62.6619 546.934 61.2641 547.242C59.8662 547.55 59.8662 547.55 59.2785 546.135C58.0576 543.465 68.5668 538.787 68.5668 538.787C62.1654 537.611 53.5962 534.724 53.5962 534.724C50.848 535.105 48.3412 535.51 46.0809 535.876C36.6864 537.395 31.5267 538.229 30.7633 533.777C30.1015 529.772 43.8399 523.896 43.8399 523.896C43.8399 523.896 48.8491 515.098 48.0503 509.142C47.7371 506.994 45.886 505.316 44.1968 503.784C41.2095 501.076 38.7288 498.827 46.1563 495.255C57.7153 489.584 62.291 462.689 62.291 462.689L67.38 439.628C67.38 439.628 74.3407 430.613 74.7743 418.415C75.015 411.637 78.4004 409.423 81.5265 407.38C84.0308 405.743 86.3686 404.215 86.7898 400.535C87.7141 392.319 84.3021 382.655 84.3021 382.655C84.3021 382.655 105.389 369.715 102.399 363.975C101.04 361.404 98.3579 361.883 94.3072 362.605C90.5729 363.271 85.6754 364.145 79.578 363.028C66.9464 360.7 49.7166 354.961 49.7166 354.961L37.5868 356.558L37.2219 368.768C37.2219 368.768 30.1699 377.851 29.0744 369.943L27.9904 361.944C27.9904 361.944 29.5194 357.722 20.3566 350.807C16.4105 347.867 14.2188 347.106 12.3258 346.449C9.8179 345.577 7.83431 344.888 2.98987 339.556C2.04278 338.449 0 334.604 0 334.604C3.4232 317.956 25.2976 304.583 25.2976 304.583L72.4808 281.396C72.4808 281.396 94.5947 268.616 107.146 258.506C113.062 253.781 119.843 253.223 126.359 252.687C133.767 252.077 140.834 251.496 145.897 244.848C155.345 232.41 178.463 206.827 178.463 206.827C178.463 206.827 182.753 187.498 190.239 180.069C194.244 176.144 211.839 174.33 211.839 174.33L220.42 185.809L229.777 183.139C229.777 183.139 231.317 194.104 250.875 194.264C263.258 194.358 268.896 189.791 273.434 186.115C276.088 183.965 278.367 182.119 281.399 181.69C283.39 181.414 286.181 183.133 288.992 184.864C292.237 186.862 295.51 188.878 297.613 187.863C301.824 185.9 311.067 171.728 311.272 165.042C311.412 160.315 307.859 154.02 304.468 148.014C301.228 142.273 298.137 136.797 298.56 133.206C299.359 126.873 322.546 124.34 322.546 124.34L346.679 116.934C360.418 115.051 360.851 107.999 360.851 107.999L367.903 87.4146C367.903 87.4146 376.187 81.1616 379.896 73.254C386.007 60.1305 387.343 62.5241 388.509 64.6118C389.202 65.8532 389.835 66.9865 391.375 64.6845C392.851 62.4443 395.522 61.3512 398.102 60.295C401.884 58.7472 405.472 57.2784 404.828 52.3952C404.589 50.6771 404.297 49.3708 404.068 48.3466C403.737 46.8618 403.538 45.97 403.822 45.2759C404.249 44.2323 405.769 43.6358 409.574 42.1424L410.864 41.6349C411.611 41.3353 412.488 41.0051 413.468 40.6366C416.518 39.4894 420.56 37.9687 424.74 35.827C427.351 34.4883 426.432 26.205 425.558 18.3389C424.772 11.2528 424.023 4.50517 425.926 3.47771C436.972 -2.42161 439.665 1.66337 439.665 1.66337L467.484 25.1465C467.484 25.1465 477.446 35.7699 481.873 37.2875C486.392 38.8165 500.849 36.4888 500.849 36.4888L497.506 39.1019C492.091 43.7678 492.119 47.1978 492.146 50.4499C492.162 52.3514 492.178 54.1922 491.104 56.1836C489.316 59.5267 488.624 59.3702 487.812 59.1866C487.23 59.055 486.586 58.9094 485.433 60.029C482.752 62.6421 474.684 71.3713 474.684 71.3713C474.684 71.3713 459.051 87.1408 455.491 89.1035C451.863 91.146 432.887 105.09 432.887 105.09C432.887 105.09 416.524 121.008 413.842 123.701L407.395 144.274L409.118 163.033L414.584 174.524C414.584 174.524 417.277 183.253 417.699 186.208C418.133 189.186 416.604 195.451 416.604 195.451L413.181 204.306L397.845 216.218L393.908 221.308L386.639 230.676L378.72 240.124L371.44 254.798L352.396 274.059C352.396 274.059 348.037 281.465 346.873 284.671C345.789 287.866 334.687 296.96 327.053 297.257C319.339 297.542 318.7 298.421 318.7 298.421C318.7 298.421 306.845 307.663 301.824 310.562C298.977 312.254 296.1 317.376 293.51 321.986C291.544 325.487 289.742 328.693 288.245 329.88C286.113 331.561 280.512 332.87 274.786 334.208C271.106 335.069 267.374 335.941 264.477 336.932C257.128 339.408 262.731 340.948 262.731 340.948L262.651 346.323C262.651 346.323 262.948 353.888 263.45 363.621C263.895 369.669 263.895 370.833 263.747 370.833L264.328 374.884Z" fill="white" fill-opacity="0.9"/>
	<path d="M635.449 555.606C635.449 555.606 633.224 553.814 633.236 552.902C633.236 551.955 635.381 550.3 635.381 550.3C635.381 550.3 639.489 550.631 639.956 551.966C640.344 553.084 638.017 556.017 638.017 556.017L635.449 555.606Z" fill="white" fill-opacity="0.9"/>
	<path d="M624.472 560.82C624.472 560.82 620.33 558.128 620.364 556.667C620.364 555.218 624.552 552.605 624.552 552.605C624.552 552.605 632.403 552.89 633.213 554.944C633.898 556.678 629.31 561.334 629.31 561.334L624.472 560.82Z" fill="white" fill-opacity="0.9"/>
	<path d="M211.109 985.4C204.969 980.562 211.383 975.956 218.417 970.906C218.847 970.596 219.28 970.286 219.712 969.973C225.999 965.382 228.562 965.025 234.959 964.133C237.387 963.794 240.368 963.378 244.314 962.625C258.68 959.875 269.554 963.024 269.554 963.024C269.554 963.024 273.274 974.423 264.317 978.828C263.218 979.368 262.026 979.987 260.775 980.636C254.305 983.996 246.207 988.202 240.776 986.815C240.776 986.815 230.906 988.71 215.65 986.998C213.608 986.747 212.124 986.176 211.109 985.4Z" fill="white" fill-opacity="0.9"/>
	<path d="M519.5 544.68C520.646 545.298 521.631 545.83 525.37 544.229C530.391 542.05 528.075 538.992 528.075 538.992C528.075 538.992 528.794 535.443 528.246 534.473C527.778 533.674 524.937 532.682 524.937 532.682C524.937 532.682 522.632 530.149 521.56 530.126C520.304 530.103 517.372 532.944 517.372 532.944L515.181 539.254C515.557 542.175 516.698 543.716 518.091 544.081C518.667 544.23 519.094 544.461 519.5 544.68Z" fill="white" fill-opacity="0.9"/>
	</g>
	<path d="M215.596 506.425L232.237 481.464L236.398 484.237L219.757 509.199L215.596 506.425Z" fill="black"/>
	<path d="M319.602 484.237L323.763 481.464L331.39 492.904L327.23 495.678L319.602 484.237Z" fill="black"/>
	<path d="M221.837 510.586L238.478 485.624L242.638 488.398L225.997 513.359L221.837 510.586Z" fill="black"/>
	<path d="M313.362 488.398L317.522 485.624L334.163 510.585L330.003 513.359L313.362 488.398Z" fill="black"/>
	<path d="M228.077 514.746L244.718 489.784L248.878 492.558L232.237 517.519L228.077 514.746Z" fill="black"/>
	<path d="M307.122 492.558L311.282 489.784L318.909 501.225L314.749 503.998L307.122 492.558Z" fill="black"/>
	<path d="M328.616 497.758L332.777 494.984L340.404 506.425L336.243 509.199L328.616 497.758Z" fill="black"/>
	<path d="M316.136 506.078L320.296 503.305L327.923 514.746L323.763 517.519L316.136 506.078Z" fill="black"/>
	<path d="M228.077 545.254L232.237 542.481L248.878 567.442L244.718 570.216L228.077 545.254Z" fill="black"/>
	<path d="M316.136 553.921L323.763 542.481L327.923 545.254L320.296 556.695L316.136 553.921Z" fill="black"/>
	<path d="M314.749 556.002L307.122 567.442L311.282 570.216L318.909 558.775L314.749 556.002Z" fill="black"/>
	<path d="M320.989 560.162L313.362 571.602L317.522 574.376L325.149 562.935L320.989 560.162Z" fill="black"/>
	<path d="M327.23 564.322L319.602 575.763L323.763 578.536L331.39 567.096L327.23 564.322Z" fill="black"/>
	<path d="M332.777 565.015L328.616 562.242L336.243 550.801L340.404 553.575L332.777 565.015Z" fill="black"/>
	<path d="M326.536 560.855L322.376 558.082L330.003 546.641L334.163 549.414L326.536 560.855Z" fill="black"/>
	<path d="M221.837 549.414L225.997 546.641L233.624 558.082L229.464 560.855L221.837 549.414Z" fill="black"/>
	<path d="M215.596 553.575L219.757 550.801L236.398 575.763L232.237 578.536L215.596 553.575Z" fill="black"/>
	<path d="M230.85 562.935L235.011 560.162L242.638 571.602L238.478 574.376L230.85 562.935Z" fill="black"/>
	<path d="M278 500C261.431 500 248 513.432 248 530C248 546.569 261.431 560 278 560C294.568 560 308 546.569 308 530C308 513.432 294.568 500 278 500Z" fill="#0047A0"/>
	<path d="M302.961 546.641C305.168 543.331 305.97 539.28 305.189 535.379C304.409 531.478 302.111 528.047 298.801 525.84C295.491 523.633 291.44 522.832 287.539 523.612C283.638 524.392 280.207 526.69 278 530C275.793 533.31 272.362 535.608 268.461 536.388C264.56 537.169 260.509 536.367 257.199 534.16C253.889 531.954 251.591 528.522 250.81 524.621C250.03 520.72 250.832 516.669 253.038 513.359C257.452 506.739 264.314 502.143 272.116 500.583C279.918 499.022 288.021 500.625 294.641 505.039C301.261 509.452 305.857 516.315 307.417 524.117C308.978 531.919 307.375 540.021 302.961 546.641Z" fill="#CD2E3A"/>
	<defs>
	<filter id="filter0_b_201_2" x="-256" y="-255.714" width="1152" height="1499.43" filterUnits="userSpaceOnUse" color-interpolation-filters="sRGB">
	<feFlood flood-opacity="0" result="BackgroundImageFix"/>
	<feGaussianBlur in="BackgroundImage" stdDeviation="128"/>
	<feComposite in2="SourceAlpha" operator="in" result="effect1_backgroundBlur_201_2"/>
	<feBlend mode="normal" in="SourceGraphic" in2="effect1_backgroundBlur_201_2" result="shape"/>
	</filter>
	</defs>
</svg>
