<?xml version="1.1" encoding="UTF-8"?>
<svg version="2.0" viewBox="0 0 240 240" xmlns="http://www.w3.org/2000/svg">
	<circle cx="120" cy="120" r="120" fill="white"/>
	<path d="M179.55 86.852C172.896 84.0372 165.363 82.5 157.5 82.5C157.5 74.6371 155.963 67.1042 153.148 60.4499C160.818 59.8031 167.967 61.901 173.033 66.967C178.099 72.0329 180.197 79.1821 179.55 86.852Z" fill="#9F8F6F"/>
	<path d="M86.852 60.4499C84.0372 67.1042 82.5 74.6371 82.5 82.5C74.818 82.5 67.2226 84.0244 60.4518 86.8752C59.7988 79.1965 61.8959 72.0381 66.967 66.967C68.3399 65.5941 69.8659 64.4391 71.5137 63.4977C75.9462 60.9655 81.2607 59.9784 86.852 60.4499Z" fill="#9F8F6F"/>
	<path d="M66.967 173.033C61.901 167.967 59.8031 160.818 60.4499 153.148C67.1042 155.963 74.6371 157.5 82.5 157.5C82.5 165.363 84.0372 172.896 86.852 179.55C79.1821 180.197 72.0329 178.099 66.967 173.033Z" fill="#9F8F6F"/>
	<path d="M153.148 179.55C155.963 172.896 157.5 165.363 157.5 157.5C165.363 157.5 172.896 155.963 179.55 153.148C180.197 160.818 178.099 167.967 173.033 173.033C167.967 178.099 160.818 180.197 153.148 179.55Z" fill="#9F8F6F"/>
	<path d="M109.299 85.3391C103.709 84.116 97.8758 83.2701 91.8761 82.8367L91.8755 82.7189L91.8751 82.6112L91.875 82.5C91.875 61.7893 104.467 45 120 45C135.533 45 148.125 61.7893 148.125 82.5C148.125 86.011 147.974 89.466 147.682 92.8487L147.671 92.9789C147.407 96.0003 147.031 98.9641 146.549 101.859C144.621 100.368 142.599 98.9652 140.502 97.6544C131.633 92.1117 120.999 87.8991 109.299 85.3391Z" fill="#053260"/>
	<path d="M157.163 91.8761C157.275 91.8754 157.388 91.875 157.5 91.875C178.211 91.875 195 104.467 195 120C195 135.533 178.211 148.125 157.5 148.125C153.989 148.125 150.534 147.974 147.151 147.682L147.021 147.671C144 147.407 141.036 147.031 138.141 146.549C139.632 144.621 141.035 142.599 142.346 140.502C147.888 131.633 152.101 120.999 154.661 109.299C155.884 103.709 156.73 97.8757 157.163 91.8761Z" fill="#053260"/>
	<path d="M144.308 112.191C140.793 125.225 135.034 136.346 127.809 144.308C114.775 140.793 103.654 135.034 95.6916 127.809C99.207 114.775 104.966 103.654 112.191 95.6916C125.225 99.207 136.346 104.966 144.308 112.191Z" fill="#053260"/>
	<path d="M85.3391 130.701C84.116 136.291 83.2701 142.124 82.8366 148.124L82.6242 148.125L82.5 148.125C61.7893 148.125 45 135.533 45 120C45 118.058 45.2624 116.163 45.7619 114.332C49.2586 101.516 64.3782 91.875 82.5 91.875C86.0112 91.875 89.4659 92.0258 92.8487 92.3176L92.9789 92.3289C96.0003 92.5929 98.964 92.9694 101.859 93.4514C100.368 95.3788 98.9653 97.4009 97.6543 99.4982C92.1117 108.367 87.8991 119.001 85.3391 130.701Z" fill="#053260"/>
	<path d="M92.3289 147.021C92.5929 144 92.9694 141.036 93.4514 138.141C95.3788 139.632 97.4009 141.035 99.4983 142.346C108.366 147.888 119.001 152.101 130.701 154.661C136.291 155.884 142.124 156.73 148.124 157.163L148.125 157.332L148.125 157.5C148.125 178.211 135.533 195 120 195C104.467 195 91.875 178.211 91.875 157.5C91.875 154.388 91.9934 151.321 92.2236 148.309C92.2565 147.878 92.2915 147.449 92.3289 147.021Z" fill="#053260"/>
</svg>
