<svg width="1024" height="1024" viewBox="0 0 1024 1024" fill="none" xmlns="http://www.w3.org/2000/svg">
<rect width="1024" height="1024" rx="256" fill="url(#paint0_linear_601_86)"/>
<path d="M242.184 397.562C227.257 432.715 219 471.384 219 511.982C219 552.58 227.257 591.25 242.184 626.403L356.605 511.982L242.184 397.562Z" fill="white"/>
<path d="M397.562 781.78C432.715 796.707 471.384 804.964 511.982 804.964C552.58 804.964 591.25 796.707 626.403 781.78L511.982 667.359L397.562 781.78Z" fill="white"/>
<path d="M781.78 626.403C796.707 591.25 804.964 552.58 804.964 511.982C804.964 471.384 796.707 432.715 781.78 397.562L667.359 511.982L781.78 626.403Z" fill="white"/>
<path d="M626.403 242.184C591.25 227.257 552.58 219 511.982 219C471.384 219 432.715 227.257 397.562 242.184L511.982 356.605L626.403 242.184Z" fill="white"/>
<path d="M783.511 240.453C812.115 269.057 812.115 315.434 783.511 344.038L615.567 511.982L783.511 679.926C812.115 708.53 812.115 754.907 783.511 783.511C754.907 812.115 708.53 812.115 679.926 783.511L511.982 615.567L344.038 783.511C315.434 812.115 269.057 812.115 240.453 783.511C211.849 754.907 211.849 708.53 240.453 679.926L408.397 511.982L240.453 344.038C211.849 315.434 211.849 269.057 240.453 240.453C269.057 211.849 315.434 211.849 344.038 240.453L511.982 408.397L679.926 240.453C708.53 211.849 754.907 211.849 783.511 240.453Z" fill="white"/>
<defs>
<linearGradient id="paint0_linear_601_86" x1="0" y1="0" x2="1024" y2="1024" gradientUnits="userSpaceOnUse">
<stop stop-color="#00BFFF"/>
<stop offset="1" stop-color="#007FFF"/>
</linearGradient>
</defs>
</svg>
