<?xml version="1.1" encoding="UTF-8"?>
<svg version="2.0" viewBox="0 0 256 256" xmlns="http://www.w3.org/2000/svg">
	<rect width="256" height="256" rx="32" fill="#1F1F1F"/>
	<g filter="url(#filter0_d_1_93)">
	<g filter="url(#filter1_d_1_93)">
	<rect width="4" height="4" rx="2" transform="matrix(1 0 0 -1 48 138)" fill="url(#paint0_linear_1_93)"/>
	</g>
	<g filter="url(#filter2_d_1_93)">
	<rect width="4" height="4" rx="2" transform="matrix(1 0 0 -1 48 154)" fill="url(#paint1_linear_1_93)"/>
	</g>
	<path d="M20 54C20 50.6863 22.6863 48 26 48H30C31.1046 48 32 48.8954 32 50V64H20V54Z" fill="url(#paint2_linear_1_93)"/>
	<path d="M20 64H32V160H26C22.6863 160 20 157.314 20 154V64Z" fill="url(#paint3_linear_1_93)"/>
	<path d="M32 64H42C43.1046 64 44 64.8954 44 66V160H32V64Z" fill="url(#paint4_linear_1_93)"/>
	<path d="M44 96V128H56V160H164V96H44Z" fill="url(#paint5_linear_1_93)"/>
	<path d="M176 80H164V160H224V144H212V128H188V112H176V80Z" fill="url(#paint6_linear_1_93)"/>
	<path d="M176 64H166C164.895 64 164 64.8954 164 66V80H176V112H188V128H212V144H224V160H230C233.314 160 236 157.314 236 154V144H224V128H212V112H200V96H188V80H176V64Z" fill="url(#paint7_linear_1_93)"/>
	<path d="M224 64H176V80H188V96H200V112H212V128H224V64Z" fill="url(#paint8_linear_1_93)"/>
	<path d="M224 50C224 48.8954 224.895 48 226 48H230C233.314 48 236 50.6863 236 54V144H224V50Z" fill="url(#paint9_linear_1_93)"/>
	<path d="M56 192H236V178C236 176.895 235.105 176 234 176H58C56.8954 176 56 176.895 56 178V192Z" fill="url(#paint10_linear_1_93)"/>
	<path d="M56 206C56 207.105 56.8954 208 58 208H234C235.105 208 236 207.105 236 206V192H56V206Z" fill="url(#paint11_linear_1_93)"/>
	</g>
	<defs>
	<filter id="filter0_d_1_93" x="4" y="40" width="248" height="192" filterUnits="userSpaceOnUse" color-interpolation-filters="sRGB">
	<feFlood flood-opacity="0" result="BackgroundImageFix"/>
	<feColorMatrix in="SourceAlpha" type="matrix" values="0 0 0 0 0 0 0 0 0 0 0 0 0 0 0 0 0 0 127 0" result="hardAlpha"/>
	<feOffset dy="8"/>
	<feGaussianBlur stdDeviation="8"/>
	<feComposite in2="hardAlpha" operator="out"/>
	<feColorMatrix type="matrix" values="0 0 0 0 0 0 0 0 0 0 0 0 0 0 0 0 0 0 0.25 0"/>
	<feBlend mode="normal" in2="BackgroundImageFix" result="effect1_dropShadow_1_93"/>
	<feBlend mode="normal" in="SourceGraphic" in2="effect1_dropShadow_1_93" result="shape"/>
	</filter>
	<filter id="filter1_d_1_93" x="40" y="130" width="20" height="20" filterUnits="userSpaceOnUse" color-interpolation-filters="sRGB">
	<feFlood flood-opacity="0" result="BackgroundImageFix"/>
	<feColorMatrix in="SourceAlpha" type="matrix" values="0 0 0 0 0 0 0 0 0 0 0 0 0 0 0 0 0 0 127 0" result="hardAlpha"/>
	<feOffset dy="4"/>
	<feGaussianBlur stdDeviation="4"/>
	<feComposite in2="hardAlpha" operator="out"/>
	<feColorMatrix type="matrix" values="0 0 0 0 0 0 0 0 0 0 0 0 0 0 0 0 0 0 1 0"/>
	<feBlend mode="normal" in2="BackgroundImageFix" result="effect1_dropShadow_1_93"/>
	<feBlend mode="normal" in="SourceGraphic" in2="effect1_dropShadow_1_93" result="shape"/>
	</filter>
	<filter id="filter2_d_1_93" x="40" y="146" width="20" height="20" filterUnits="userSpaceOnUse" color-interpolation-filters="sRGB">
	<feFlood flood-opacity="0" result="BackgroundImageFix"/>
	<feColorMatrix in="SourceAlpha" type="matrix" values="0 0 0 0 0 0 0 0 0 0 0 0 0 0 0 0 0 0 127 0" result="hardAlpha"/>
	<feOffset dy="4"/>
	<feGaussianBlur stdDeviation="4"/>
	<feComposite in2="hardAlpha" operator="out"/>
	<feColorMatrix type="matrix" values="0 0 0 0 0 0 0 0 0 0 0 0 0 0 0 0 0 0 1 0"/>
	<feBlend mode="normal" in2="BackgroundImageFix" result="effect1_dropShadow_1_93"/>
	<feBlend mode="normal" in="SourceGraphic" in2="effect1_dropShadow_1_93" result="shape"/>
	</filter>
	<linearGradient id="paint0_linear_1_93" x1="4" y1="3.99999" x2="-0.0313532" y2="3.96814" gradientUnits="userSpaceOnUse">
	<stop stop-color="#004FFF"/>
	<stop offset="1" stop-color="#0000FF"/>
	</linearGradient>
	<linearGradient id="paint1_linear_1_93" x1="4" y1="3.99999" x2="-0.0313532" y2="3.96814" gradientUnits="userSpaceOnUse">
	<stop stop-color="#FF004F"/>
	<stop offset="1" stop-color="#FF0000"/>
	</linearGradient>
	<linearGradient id="paint2_linear_1_93" x1="32" y1="48" x2="20" y2="64" gradientUnits="userSpaceOnUse">
	<stop stop-color="#00BFFF"/>
	<stop offset="1" stop-color="#007FFF"/>
	</linearGradient>
	<linearGradient id="paint3_linear_1_93" x1="32" y1="64" x2="20" y2="160" gradientUnits="userSpaceOnUse">
	<stop stop-color="#00FFFF"/>
	<stop offset="1" stop-color="#00BFFF"/>
	</linearGradient>
	<linearGradient id="paint4_linear_1_93" x1="44" y1="64" x2="32" y2="160" gradientUnits="userSpaceOnUse">
	<stop stop-color="#00FF7F"/>
	<stop offset="1" stop-color="#00FFFF"/>
	</linearGradient>
	<linearGradient id="paint5_linear_1_93" x1="164" y1="96" x2="44" y2="160" gradientUnits="userSpaceOnUse">
	<stop stop-color="#BFFF00"/>
	<stop offset="1" stop-color="#00FF00"/>
	</linearGradient>
	<linearGradient id="paint6_linear_1_93" x1="212" y1="96" x2="164" y2="160" gradientUnits="userSpaceOnUse">
	<stop stop-color="#FFDF00"/>
	<stop offset="1" stop-color="#FFBF00"/>
	</linearGradient>
	<linearGradient id="paint7_linear_1_93" x1="224" y1="80" x2="176" y2="144" gradientUnits="userSpaceOnUse">
	<stop stop-color="#FF8F00"/>
	<stop offset="1" stop-color="#FF4F00"/>
	</linearGradient>
	<linearGradient id="paint8_linear_1_93" x1="224" y1="64" x2="188" y2="112" gradientUnits="userSpaceOnUse">
	<stop stop-color="#FF4F00"/>
	<stop offset="1" stop-color="#FF1F00"/>
	</linearGradient>
	<linearGradient id="paint9_linear_1_93" x1="236" y1="48" x2="224" y2="144" gradientUnits="userSpaceOnUse">
	<stop stop-color="#BF00FF"/>
	<stop offset="1" stop-color="#7F00FF"/>
	</linearGradient>
	<linearGradient id="paint10_linear_1_93" x1="236" y1="176" x2="56" y2="192" gradientUnits="userSpaceOnUse">
	<stop stop-color="#004FFF"/>
	<stop offset="1" stop-color="#0000FF"/>
	</linearGradient>
	<linearGradient id="paint11_linear_1_93" x1="236" y1="192" x2="56" y2="208" gradientUnits="userSpaceOnUse">
	<stop stop-color="#FF004F"/>
	<stop offset="1" stop-color="#FF0000"/>
	</linearGradient>
	</defs>
</svg>
