<?xml version="1.1" encoding="UTF-8"?>
<svg version="2.0" viewBox="0 0 240 240" xmlns="http://www.w3.org/2000/svg">
	<rect width="240" height="240" rx="60" fill="url(#paint0_linear_1301_9)"/>
	<path d="M191.46 80.2224C183.475 76.8447 174.436 75 165 75C165 65.5645 163.155 56.5251 159.778 48.5399C168.982 47.7637 177.56 50.2812 183.64 56.3604C189.719 62.4395 192.236 71.0185 191.46 80.2224Z" fill="white"/>
	<path d="M80.2224 48.5399C76.8447 56.5251 75 65.5645 75 75C65.7816 75 56.6671 76.8292 48.5422 80.2502C47.7586 71.0358 50.2751 62.4457 56.3604 56.3604C58.0079 54.7129 59.839 53.327 61.8164 52.1973C67.1354 49.1586 73.5129 47.9741 80.2224 48.5399Z" fill="white"/>
	<path d="M56.3604 183.64C50.2812 177.56 47.7637 168.981 48.5399 159.778C56.525 163.155 65.5645 165 75 165C75 174.435 76.8447 183.475 80.2224 191.46C71.0185 192.236 62.4395 189.719 56.3604 183.64Z" fill="white"/>
	<path d="M159.778 191.46C163.155 183.475 165 174.435 165 165C174.436 165 183.475 163.155 191.46 159.778C192.236 168.981 189.719 177.56 183.64 183.64C177.56 189.719 168.982 192.236 159.778 191.46Z" fill="white"/>
	<path d="M107.159 78.4069C100.451 76.9392 93.451 75.9241 86.2514 75.404L86.2506 75.2627L86.2501 75.1335L86.25 75C86.25 50.1472 101.36 30 120 30C138.64 30 153.75 50.1472 153.75 75C153.75 79.2132 153.569 83.3592 153.219 87.4184L153.205 87.5747C152.888 91.2004 152.437 94.7569 151.858 98.2308C149.545 96.442 147.119 94.7583 144.602 93.1853C133.96 86.5341 121.198 81.4789 107.159 78.4069Z" fill="white"/>
	<path d="M164.596 86.2513C164.73 86.2504 164.865 86.25 165 86.25C189.853 86.25 210 101.36 210 120C210 138.64 189.853 153.75 165 153.75C160.787 153.75 156.641 153.569 152.582 153.219L152.425 153.205C148.8 152.889 145.243 152.437 141.769 151.858C143.558 149.545 145.242 147.119 146.815 144.602C153.466 133.96 158.521 121.198 161.593 107.159C163.061 100.451 164.076 93.4509 164.596 86.2513Z" fill="white"/>
	<path d="M149.17 110.629C144.952 126.27 138.04 139.615 129.371 149.17C113.73 144.952 100.385 138.04 90.8299 129.371C95.0484 113.73 101.96 100.385 110.629 90.8299C126.27 95.0484 139.615 101.96 149.17 110.629Z" fill="white"/>
	<path d="M78.4069 132.841C76.9392 139.549 75.9241 146.549 75.404 153.749L75.1491 153.75L75 153.75C50.1472 153.75 30 138.64 30 120C30 117.67 30.3148 115.395 30.9143 113.198C35.1104 97.8189 53.2538 86.25 75 86.25C79.2135 86.25 83.3591 86.431 87.4184 86.7811L87.5746 86.7947C91.2004 87.1115 94.7568 87.5633 98.2307 88.1417C96.442 90.4546 94.7583 92.8811 93.1852 95.3979C86.534 106.04 81.4789 118.802 78.4069 132.841Z" fill="white"/>
	<path d="M86.7947 152.425C87.1115 148.8 87.5633 145.243 88.1417 141.769C90.4545 143.558 92.881 145.242 95.3979 146.815C106.04 153.466 118.802 158.521 132.841 161.593C139.549 163.061 146.549 164.076 153.749 164.596L153.75 164.799L153.75 165C153.75 189.853 138.64 210 120 210C101.36 210 86.25 189.853 86.25 165C86.25 161.266 86.3921 157.585 86.6683 153.97C86.7077 153.454 86.7499 152.939 86.7947 152.425Z" fill="white"/>
	<defs>
		<linearGradient id="paint0_linear_1301_9" x1="0" y1="0" x2="240" y2="240" gradientUnits="userSpaceOnUse">
			<stop stop-color="#00BFFF"/>
			<stop offset="1" stop-color="#007FFF"/>
		</linearGradient>
	</defs>
</svg>
